PathFileType	4	(X/Y/Z)
DataRate	CameraRate	NumFrames	NumMarkers	Units	OrigDataRate	OrigDataStartFrame	OrigNumFrames	
  120.0	  120.0	    4	     56	     mm	  120.0	      216	    431
Frame#	Time	LASI			RASI			LPSI			RPSI			RTH1			RTH2			RTH3			RLFC			RMFC			LTH1			LTH2			LTH3			LLFC			LMFC			RTB1			RTB2			RTB3			RLMAL			RMMAL			LTB1			LTB2			LTB3			LMMAL			LLMAL			RCAL			RTOE			RMT5			LCAL			LTOE			LMT5			LACR			RACR			CLAV			C7			LASH			LPSH			RASH			RPSH			RUA1			RUA2			RUA3			RLEL			RMEL			LUA1			LUA2			LUA3			LLEL			LMEL			RFAsuperior			RFAradius			RFAulna			LFAsuperior			LFAradius			LFAulna			RHJC			LHJC			
		X1	Y1	Z1	X2	Y2	Z2	X3	Y3	Z3	X4	Y4	Z4	X5	Y5	Z5	X6	Y6	Z6	X7	Y7	Z7	X8	Y8	Z8	X9	Y9	Z9	X10	Y10	Z10	X11	Y11	Z11	X12	Y12	Z12	X13	Y13	Z13	X14	Y14	Z14	X15	Y15	Z15	X16	Y16	Z16	X17	Y17	Z17	X18	Y18	Z18	X19	Y19	Z19	X20	Y20	Z20	X21	Y21	Z21	X22	Y22	Z22	X23	Y23	Z23	X24	Y24	Z24	X25	Y25	Z25	X26	Y26	Z26	X27	Y27	Z27	X28	Y28	Z28	X29	Y29	Z29	X30	Y30	Z30	X31	Y31	Z31	X32	Y32	Z32	X33	Y33	Z33	X34	Y34	Z34	X35	Y35	Z35	X36	Y36	Z36	X37	Y37	Z37	X38	Y38	Z38	X39	Y39	Z39	X40	Y40	Z40	X41	Y41	Z41	X42	Y42	Z42	X43	Y43	Z43	X44	Y44	Z44	X45	Y45	Z45	X46	Y46	Z46	X47	Y47	Z47	X48	Y48	Z48	X49	Y49	Z49	X50	Y50	Z50	X51	Y51	Z51	X52	Y52	Z52	X53	Y53	Z53	X54	Y54	Z54	X55	Y55	Z55	X56	Y56	Z56	

216	1.80000	888.01079	1031.08217	-613.75022	896.39726	1024.37004	-376.82638	729.28396	1055.98418	-541.29254	726.85076	1053.77392	-443.31807	814.49774	871.45132	-302.71004	877.08840	738.40464	-304.46212	794.42986	612.21586	-313.72111	810.34274	516.45423	-304.60881	798.59300	503.41653	-429.23861	826.73851	850.32556	-683.78327	878.40964	741.05965	-683.29567	802.79027	627.30658	-665.56835	821.50922	519.03996	-669.81959	811.80418	504.54038	-551.00406	836.54653	372.38148	-339.32213	790.45712	329.76777	-268.44572	811.51566	254.17072	-322.37935	740.61539	139.95493	-266.80479	775.55771	124.24656	-345.38601	847.37179	393.95868	-627.11485	791.48554	336.95939	-708.90936	818.74893	229.90746	-655.86676	785.87915	122.38487	-627.50932	761.46458	126.12184	-710.22939	689.82014	105.56573	-301.92682	896.99426	73.50544	-315.94028	874.15649	63.99257	-222.73662	703.64413	107.45984	-672.07453	909.24875	77.92387	-661.75144	890.88250	64.21301	-751.91035	787.99103	1494.15279	-659.61877	786.92045	1491.25964	-312.88015	855.62967	1481.90194	-462.25360	730.34957	1528.35823	-490.79388	855.99038	1453.53678	-637.74993	732.85222	1441.29591	-679.76242	850.99758	1459.92054	-336.26921	719.89637	1438.54664	-309.94556	840.41015	1443.04582	-202.32334	813.44300	1385.51286	-175.77391	897.65837	1423.75461	-139.46569	941.21125	1402.36167	-80.85643	943.97269	1321.60647	-99.77971	838.02304	1431.33110	-770.78433	855.16999	1380.53750	-817.53356	929.95562	1422.33211	-805.62774	974.45885	1395.10252	-880.50093	953.19551	1319.96503	-858.58369	1063.01840	1413.91686	-121.36152	1177.57708	1379.73371	-175.87868	1184.26092	1383.51339	-104.75284	1101.27826	1398.72759	-842.54548	1194.31289	1346.98808	-766.83698	1212.00573	1371.23636	-830.00406	806.21852	994.04322	-429.51603	820.55181	979.80307	-556.65814	
217	1.80833	888.07062	1031.07652	-613.72055	896.45349	1024.35696	-376.82128	729.34978	1055.96660	-541.30344	726.89659	1053.79864	-443.29323	814.53532	871.34077	-302.78427	877.12335	738.40513	-304.45711	794.47710	612.30041	-313.62116	810.38757	516.45512	-304.56946	798.62995	503.41608	-429.23496	826.77695	850.32305	-683.77345	878.47401	741.05810	-683.30953	802.84761	627.29701	-665.58384	821.56627	519.04577	-669.82377	811.81343	504.54739	-550.98892	836.57491	372.37677	-339.30039	790.48600	329.76890	-268.43560	811.53385	254.17109	-322.37327	740.62053	139.98315	-266.78629	775.52969	124.20603	-345.25127	847.40065	393.95691	-627.11983	791.52821	336.96884	-708.91725	818.77238	229.89924	-655.84370	785.89186	122.37487	-627.51247	761.47732	126.11731	-710.22361	689.82873	105.56029	-301.93440	897.00256	73.50189	-315.95083	874.17186	63.98628	-222.73802	703.65023	107.44022	-672.02928	909.26307	77.92534	-661.74412	890.89627	64.21450	-751.90257	788.04410	1494.15354	-659.61564	786.97141	1491.26293	-312.87614	855.66778	1481.87187	-462.27526	730.41026	1528.30245	-490.85874	856.05628	1453.55028	-637.77150	732.90456	1441.29111	-679.75567	851.04192	1459.92602	-336.24145	719.95047	1438.54116	-309.96177	840.45870	1443.07551	-202.29442	813.49240	1385.54325	-175.74889	897.72208	1423.79207	-139.44695	941.27111	1402.40200	-80.82761	944.01956	1321.63497	-99.71681	838.07543	1431.33660	-770.79137	855.22245	1380.54378	-817.55048	930.00510	1422.34436	-805.62742	974.52448	1395.10616	-880.48746	953.26140	1319.98579	-858.57763	1063.09096	1413.94266	-121.36870	1177.66787	1379.78154	-175.83112	1184.31205	1383.52609	-104.73754	1101.35508	1398.73932	-842.56486	1194.39181	1347.04022	-766.74334	1212.06684	1371.26987	-829.99295	806.26823	994.03915	-429.50526	820.60905	979.80074	-556.64654	
218	1.81667	888.13584	1031.06951	-613.69700	896.50864	1024.35090	-376.80522	729.40558	1055.95872	-541.30139	726.94051	1053.82548	-443.26000	814.57314	871.24705	-302.85569	877.15033	738.40542	-304.45217	794.51465	612.31307	-313.60207	810.43373	516.45353	-304.51447	798.67711	503.41805	-429.23091	826.82182	850.31878	-683.76307	878.52621	741.05598	-683.33409	802.89504	627.28710	-665.60867	821.61198	519.03966	-669.80871	811.82702	504.53909	-550.97307	836.60405	372.37556	-339.27335	790.51177	329.76785	-268.42974	811.55375	254.17167	-322.36922	740.62038	140.01835	-266.80319	775.49625	124.16422	-345.09911	847.42690	393.96061	-627.13579	791.57719	336.99980	-708.91079	818.79586	229.89295	-655.82130	785.89827	122.36551	-627.51445	761.49511	126.11698	-710.21726	689.83987	105.55732	-301.93959	897.00923	73.49872	-315.95662	874.18652	63.98194	-222.73671	703.65611	107.43509	-672.00443	909.27680	77.92622	-661.73864	890.91017	64.21639	-751.89256	788.09515	1494.15061	-659.60867	787.02219	1491.26378	-312.87473	855.70612	1481.84639	-462.29435	730.48414	1528.25356	-490.90306	856.11931	1453.56204	-637.78048	732.95287	1441.28817	-679.75308	851.08938	1459.93823	-336.20048	720.00336	1438.54200	-309.98132	840.50882	1443.09735	-202.26983	813.54291	1385.56375	-175.72162	897.77874	1423.82081	-139.43123	941.32776	1402.43557	-80.80408	944.07183	1321.65936	-99.66504	838.11747	1431.34286	-770.79616	855.27573	1380.54753	-817.54290	930.05602	1422.35724	-805.62859	974.58465	1395.11118	-880.44753	953.32308	1320.00421	-858.57064	1063.16018	1413.96557	-121.38970	1177.75743	1379.81998	-175.81969	1184.37082	1383.55051	-104.70852	1101.42613	1398.76090	-842.55487	1194.46806	1347.09825	-766.66197	1212.12382	1371.30142	-829.98332	806.32042	994.04071	-429.48650	820.66184	979.80082	-556.62762	
219	1.82500	888.20178	1031.06013	-613.68175	896.55884	1024.35095	-376.78396	729.45171	1055.96389	-541.28084	726.98311	1053.85014	-443.22458	814.61789	871.20763	-302.89632	877.17008	738.40098	-304.45029	794.54473	612.28975	-313.62810	810.47217	516.44460	-304.48543	798.72447	503.42651	-429.22396	826.87668	850.31500	-683.76044	878.55798	741.05375	-683.34898	802.92630	627.28011	-665.62551	821.64324	519.02709	-669.78341	811.84961	504.51586	-550.95602	836.63256	372.37660	-339.25469	790.53745	329.77122	-268.42096	811.57323	254.17236	-322.37128	740.61738	140.04230	-266.84008	775.47229	124.13562	-344.98243	847.44939	393.96379	-627.15155	791.61807	337.03275	-708.90174	818.81516	229.89087	-655.81476	785.89937	122.36051	-627.51563	761.51427	126.11884	-710.21353	689.85148	105.55648	-301.94317	897.01338	73.49733	-315.95533	874.19636	63.98249	-222.73325	703.66346	107.44904	-672.01451	909.28567	77.92694	-661.73536	890.91964	64.21701	-751.88458	788.14563	1494.14713	-659.59915	787.07162	1491.26691	-312.87917	855.74744	1481.82663	-462.32175	730.55584	1528.22600	-490.91604	856.17599	1453.56752	-637.76693	733.00242	1441.29380	-679.75451	851.13594	1459.95713	-336.16584	720.05500	1438.54915	-310.00137	840.55865	1443.11113	-202.25830	813.59465	1385.57637	-175.69391	897.82691	1423.84111	-139.42160	941.38372	1402.46117	-80.79123	944.13965	1321.68314	-99.62366	838.15757	1431.35095	-770.79205	855.33178	1380.55414	-817.52529	930.10832	1422.37383	-805.63157	974.63896	1395.12179	-880.40255	953.38130	1320.02038	-858.56841	1063.22002	1413.99112	-121.40189	1177.83500	1379.85044	-175.81280	1184.43161	1383.57981	-104.68804	1101.48991	1398.79902	-842.51762	1194.53131	1347.15685	-766.63840	1212.17756	1371.33469	-829.97411	806.37351	994.04715	-429.46192	820.70567	979.80280	-556.60393	
